<svg xmlns="http://www.w3.org/2000/svg" viewBox="0 0 24 24" fill="currentColor" width="16" height="16"><path fill-rule="evenodd" d="M14.06 3.114a.75.75 0 01.44 1.334l-3.374 1.687a.75.75 0 01-.88-.22L7.5 3.182a.75.75 0 111.136-.974l1.966 2.293 2.458-1.228a.75.75 0 011.001.841zM5.25 7.5A.75.75 0 016 6.75h12a.75.75 0 010 1.5H6a.75.75 0 01-.75-.75z" clip-rule="evenodd"/><path d="M6.75 9.75a.75.75 0 000 1.5h10.5a.75.75 0 000-1.5H6.75zM6.75 13.5a.75.75 0 000 1.5h10.5a.75.75 0 000-1.5H6.75zM6.75 17.25a.75.75 0 000 1.5h10.5a.75.75 0 000-1.5H6.75z"/></svg>
