<svg xmlns="http://www.w3.org/2000/svg" viewBox="0 0 24 24" fill="currentColor">
  <!-- Document/Report background -->
  <path d="M14 2H6C4.9 2 4 2.9 4 4V20C4 21.1 4.9 22 6 22H18C19.1 22 20 21.1 20 20V8L14 2ZM18 20H6V4H13V9H18V20Z"/>
  
  <!-- Open hand palm inside the document -->
  <g transform="translate(7, 10) scale(0.4)">
    <!-- Palm base -->
    <path d="M7 12c0-1.1.9-2 2-2h6c1.1 0 2 .9 2 2v6c0 2.2-1.8 4-4 4h-2c-2.2 0-4-1.8-4-4v-6z"/>
    
    <!-- Thumb -->
    <path d="M4 14c0-1.1.9-2 2-2s2 .9 2 2v2c0 1.1-.9 2-2 2s-2-.9-2-2v-2z"/>
    
    <!-- Index finger -->
    <path d="M9 3c0-.6.4-1 1-1s1 .4 1 1v9c0 .6-.4 1-1 1s-1-.4-1-1V3z"/>
    
    <!-- Middle finger -->
    <path d="M11.5 2c0-.6.4-1 1-1s1 .4 1 1v10c0 .6-.4 1-1 1s-1-.4-1-1V2z"/>
    
    <!-- Ring finger -->
    <path d="M14 3c0-.6.4-1 1-1s1 .4 1 1v9c0 .6-.4 1-1 1s-1-.4-1-1V3z"/>
    
    <!-- Pinky finger -->
    <path d="M16.5 5c0-.6.4-1 1-1s1 .4 1 1v7c0 .6-.4 1-1 1s-1-.4-1-1V5z"/>
  </g>
</svg> 